<!DOCTYPE svg PUBLIC "-//W3C//DTD SVG 20010904//EN" "http://www.w3.org/TR/2001/REC-SVG-20010904/DTD/svg10.dtd">
<svg version="1.0" xmlns="http://www.w3.org/2000/svg" width="300px" height="300px" viewBox="0 0 3000 3000" preserveAspectRatio="xMidYMid meet">
<g id="layer101" fill="#263573" stroke="none">
 <path d="M1375 2969 c-626 -43 -1170 -500 -1325 -1113 -129 -512 18 -1044 391 -1416 168 -167 358 -284 584 -359 167 -55 289 -74 470 -74 181 0 303 19 470 74 226 75 418 193 584 360 515 514 582 1309 160 1908 -29 41 -89 113 -133 159 -318 331 -739 493 -1201 461z"/>
 </g>
<g id="layer102" fill="#ffffff" stroke="none">
 <path d="M1375 2969 c-626 -43 -1170 -500 -1325 -1113 -129 -512 18 -1044 391 -1416 168 -167 358 -284 584 -359 167 -55 289 -74 470 -74 181 0 303 19 470 74 226 75 418 193 584 360 515 514 582 1309 160 1908 -29 41 -89 113 -133 159 -318 331 -739 493 -1201 461z m91 -819 c100 -25 188 -68 246 -120 26 -22 48 -40 51 -40 3 0 9 14 12 31 10 43 81 112 131 127 51 15 166 16 234 1 l50 -11 0 -174 0 -174 -30 0 c-19 0 -33 -7 -40 -19 -6 -12 -10 -119 -10 -278 0 -290 -9 -356 -62 -463 -39 -80 -122 -164 -203 -207 -177 -93 -431 -107 -660 -36 -79 25 -228 96 -273 131 l-23 18 60 120 c66 134 84 149 138 112 55 -37 164 -89 220 -103 68 -18 206 -20 254 -4 86 29 138 102 139 193 0 45 -1 48 -22 42 -79 -23 -211 -38 -298 -32 -253 16 -433 115 -513 283 -30 64 -32 75 -32 178 0 103 2 114 32 178 101 213 342 312 599 247z"/>
 <path d="M1315 1837 c-17 -8 -45 -31 -63 -51 -28 -32 -32 -44 -32 -91 0 -46 5 -59 30 -89 17 -19 52 -45 78 -58 41 -20 60 -23 157 -21 61 0 133 8 160 15 l50 14 3 81 3 80 -46 42 c-67 62 -124 84 -225 88 -57 2 -95 -1 -115 -10z"/>
 </g>

</svg>