<svg xmlns="http://www.w3.org/2000/svg" viewBox="0 0 670.69 439.67"><defs><style>.a{fill:none;}.b{fill:#040404;}.b,.c{fill-rule:evenodd;}.c{fill:#140464;}</style></defs><title>andrewnet svg</title><rect class="a" x="88.69" y="37.67" width="582" height="402"/><path class="b" d="M208.14,5V8.5h-2.83v5.33h2.83V20.3c0,5.56,0,6.59.28,7.3,1.2,3.62,5.26,4.61,11,2.7,2-.66,1.9-.48,1.14-3.57-.64-2.57-.83-2.91-1.34-2.41a4.19,4.19,0,0,1-3,.45c-1.16-.53-1.2-.77-1.2-6.19V13.83h4.5V8.5H215v-7h-6.88V5m-40.9,3.5a9.87,9.87,0,0,0-4.3,2.35l-1,.94V8.5h-6.3V30.83h7V24.47c0-6.17,0-6.39.36-7.1,1.26-2.61,4.65-3.9,6.18-2.36,1.09,1.09,1.13,1.41,1.13,9v6.8h6.83V23c0-9.76-.15-11-1.67-12.89s-5-2.48-8.23-1.62m22.07-.14c-3.51,1-5.23,2.06-6.88,4.28a12.62,12.62,0,0,0-1.33,11.94c3.37,8.24,16.46,9.08,21.42,1.38.5-.77.66-.68-2.71-1.63-.69-.19-1.59-.46-2-.59-.72-.22-.76-.22-1,.13-2.56,3.72-8.41,2.77-9.22-1.49l-.11-.55H204v-1.9c0-5.9-3.13-10.08-8.57-11.44a19.2,19.2,0,0,0-6.1-.13M194,13.63a5,5,0,0,1,2.56,3.5v.37H187.4v-.37c0-2.75,4-4.84,6.6-3.5M-89.69-38.67h0" transform="translate(89.69 38.67)"/><path class="c" d="M67.48,5.94v5.94L67,11.2c-2.22-3.06-7-3.95-10.87-2-4.92,2.5-7,10.45-4.29,16.12a10.08,10.08,0,0,0,13.31,5.07l.15-.07c1.07-.5,3-2.19,3-2.61a.18.18,0,0,1,.16-.18h0c.09,0,.16.26.16.57,0,2.35,2.91,3.63,6.54,2.88l.63-.13V27.91c0-2.43,0-2.91-.24-2.91a1.62,1.62,0,0,1-.71-.4l-.47-.41V0H67.48V5.94M7.23,8.51a17,17,0,0,0-5.72,2.3l-.38.28.49,1c.28.54.73,1.5,1,2.12.58,1.29.54,1.27,1.53.67,4.55-2.81,9.27-2.55,10.13.54.23.82.24,2.14,0,2a18.51,18.51,0,0,0-4.67-.75c-6.13,0-10.29,3.72-9.52,8.52,1,6.47,9.6,8.19,14.82,3,.63-.63.63-.63.76.22.36,2.23,3,3.29,6.47,2.57l.63-.13V25.08l-.5-.22c-.78-.35-.82-.57-.84-4.63,0-5.22-.39-6.85-2-8.87C17.36,8.68,12,7.44,7.23,8.51M38,8.41a9,9,0,0,0-5.38,3.15l-.37.5V8.5H26.14V30.83H33V24.46c0-6.31,0-6.39.37-7.09,1.71-3.2,5.51-4.09,6.79-1.61l.42.81V30.84L44,30.79h3.45V23.12c0-10.65-.27-12.14-2.84-13.89-1.47-1-4.41-1.34-6.69-.78m52.87,0A8.73,8.73,0,0,0,86.17,12l-.36.58V8.5H79.48V30.83h6.83V17.38l.58-.6a10.15,10.15,0,0,1,6-2.28h.71V8.25h-.92A6.33,6.33,0,0,0,91,8.44m11.55.09a10.94,10.94,0,0,0-6.77,4.7,10.09,10.09,0,0,0-.73,1.22,3.81,3.81,0,0,1-.24.64c-2,4.4-.63,10.59,3,13.49,5.5,4.47,15.1,3.19,18.35-2.44.59-1,1-.79-4-2.18l-1.37-.38-.35.56c-2.18,3.52-8.15,2.37-9.06-1.74l-.11-.54h8.16c7.29,0,8.17,0,8.26-.26,1-2.69-1.19-8.86-3.9-10.82-.38-.28-.79-.6-.92-.72a6.86,6.86,0,0,0-1.2-.63l-1.29-.58a16.52,16.52,0,0,0-7.75-.32m15.08.37c.07.21.22.6.34.88S118.6,11,119,12s.75,1.81.84,2,.5,1.19.92,2.25c.89,2.19,1,2.44,3.86,9.41l2.13,5.17h5.69l.46-1.21c.25-.67.53-1.36.61-1.55s.63-1.63,1.21-3.21l.89-2.86.67,1.72c.37.94,1.11,2.93,1.65,4.42l1,2.71h5.71l.34-.79c.19-.43.8-1.91,1.36-3.29s1.09-2.65,1.17-2.83.35-.82.59-1.42.5-1.23.58-1.42.35-.82.59-1.41.5-1.24.58-1.42.34-.82.58-1.42.5-1.23.58-1.41a18.39,18.39,0,0,0,.84-2,20.54,20.54,0,0,1,.83-2,16.12,16.12,0,0,0,1-2.66c0-.23-.44-.26-3.21-.26h-3.21l-.39,1c-.22.57-.46,1.19-.54,1.38s-1,2.71-4,10.54c-1,2.77-1.08,2.83-1.33,1.92-.1-.35-.51-1.6-.93-2.79-.7-2-.74-2.19-.52-2.67.12-.27.8-2,1.49-3.75s1.33-3.37,1.41-3.51a3.66,3.66,0,0,0,.26-.79,1.23,1.23,0,0,1,.27-.63.55.55,0,0,0,.15-.42c0-.3-.14-.32-2.73-.32h-2.72l-.26.71c-.14.39-.57,1.72-.95,3s-.73,2.36-.78,2.5-.31-.47-.58-1.34-.56-1.73-.64-1.91-.33-.92-.54-1.63l-.38-1.29h-2.79c-2.83,0-3,0-2.64.63.08.16.43,1,.77,1.87s.72,1.81.84,2.08.38,1,.58,1.5.5,1.31.66,1.68a7.56,7.56,0,0,1,.42,1.12,1.27,1.27,0,0,0,.26.55c.27.17.15.8-.53,2.74-.37,1-.79,2.29-.93,2.74l-.26.83-.48-1.33c-.27-.73-.55-1.48-.64-1.66s-.73-1.87-1.43-3.75S126,14,126,13.83s-.53-1.37-1-2.75l-1-2.5h-6.58l.11.38m-9.81,4.76A4.73,4.73,0,0,1,110.24,17l.12.62h-9.25l.11-.67a4.61,4.61,0,0,1,5.45-3.57,4.67,4.67,0,0,1,1.09.37m-42.9,1.11c2,1.19,2.63,2.39,2.63,5.39,0,2.52-.12,2.86-1.36,4a5.08,5.08,0,0,1-6.94-.39c-3.78-4.78.71-11.89,5.67-9M13.73,21l.66.24v1.1c.08,1.72-.67,2.69-2.64,3.44-4.12,1.57-7.21-2.3-3.65-4.57,1-.64,4.09-.76,5.58-.21" transform="translate(89.69 38.67)"/><path class="b" d="M208.14,5V8.5h-2.83v5.33h2.83V20.3c0,5.56,0,6.59.28,7.3,1.2,3.62,5.26,4.61,11,2.7,2-.66,1.9-.48,1.14-3.57-.64-2.57-.83-2.91-1.34-2.41a4.19,4.19,0,0,1-3,.45c-1.16-.53-1.2-.77-1.2-6.19V13.83h4.5V8.5H215v-7h-6.88V5m-40.9,3.5a9.87,9.87,0,0,0-4.3,2.35l-1,.94V8.5h-6.3V30.83h7V24.47c0-6.17,0-6.39.36-7.1,1.26-2.61,4.65-3.9,6.18-2.36,1.09,1.09,1.13,1.41,1.13,9v6.8h6.83V23c0-9.76-.15-11-1.67-12.89s-5-2.48-8.23-1.62m22.07-.14c-3.51,1-5.23,2.06-6.88,4.28a12.62,12.62,0,0,0-1.33,11.94c3.37,8.24,16.46,9.08,21.42,1.38.5-.77.66-.68-2.71-1.63-.69-.19-1.59-.46-2-.59-.72-.22-.76-.22-1,.13-2.56,3.72-8.41,2.77-9.22-1.49l-.11-.55H204v-1.9c0-5.9-3.13-10.08-8.57-11.44a19.2,19.2,0,0,0-6.1-.13M194,13.63a5,5,0,0,1,2.56,3.5v.37H187.4v-.37c0-2.75,4-4.84,6.6-3.5M-89.69-38.67h0" transform="translate(89.69 38.67)"/></svg>